<svg xmlns="http://www.w3.org/2000/svg" width="113.405" height="86.373" viewBox="0 0 113.405 86.373">
  <g id="Group_137" data-name="Group 137" transform="translate(-272.624 72.558) rotate(-45)">
    <path id="Path_138" data-name="Path 138" d="M372.214,195.4s1.875,1.71,3.249.306,2.4-2.577,1.429-3.726-2.7-.48-3.776.71S371.463,194.367,372.214,195.4Z" transform="translate(-107.291 -6.347)" fill="#1ca6b0"/>
    <path id="Path_139" data-name="Path 139" d="M381.822,202.436s-1.147-1.523-.21-2.422,2.943-3.129,3.748-3.156,2.6,1.1,1.931,2.634a10.262,10.262,0,0,1-3,3.152A2.256,2.256,0,0,1,381.822,202.436Z" transform="translate(-113.283 -9.844)" fill="#1ca6b0"/>
    <path id="Path_140" data-name="Path 140" d="M392.821,207.851a1.636,1.636,0,0,0,.523,1.975c1.067.741,1.675.546,2.215.192s4.264-3.124,2.942-4.761S395.138,205.615,392.821,207.851Z" transform="translate(-120.597 -14.832)" fill="#1ca6b0"/>
    <path id="Path_141" data-name="Path 141" d="M405.278,214.928a19.651,19.651,0,0,1,2.818-2.386c.418-.051,1.95,1.936.959,2.858S405.743,216.175,405.278,214.928Z" transform="translate(-128.651 -19.873)" fill="#1ca6b0"/>
    <path id="Path_142" data-name="Path 142" d="M366.635,184.037c-1.038-1.347-3.312.775-3.312.775-1.131,1.923,1.117,3.23,2.425,2.614C365.748,187.426,368.131,185.979,366.635,184.037Z" transform="translate(-101.626 -1.36)" fill="#1ca6b0"/>
    <path id="Path_143" data-name="Path 143" d="M310.212,285.733s33.079-17.479,24.245-42.1a32.777,32.777,0,0,0-8.01-4.525c-5.075-2.067-4.754-5.236-4.941-8.807s-1.156-11.277,2.571-11.446c2.687-.121,3.05,1.847,3.238,4.29s.564,6.2,3.383,7.518,20.111,6.954,20.111,6.954,5.427,16.164-7.917,33.079A39.5,39.5,0,0,1,310.212,285.733Z" transform="translate(-67.862 -23.908)" fill="#1ca6b0"/>
    <path id="Path_144" data-name="Path 144" d="M261.121,182.668c-1.88,4.934,2.826,4.45,2.826,4.45-.517,3.712,3.25,3.584,3.25,3.584.282,4.229,4.13,2.944,4.13,2.944.141,3.054,5.374,2.61,6.983,2.945,1.886.393,4.582.717,4.14,3.118a2.029,2.029,0,0,1-2.558,1.55s-10.525-3.43-11.089-3.43-.235.658-.235.658,12.264,3.994,13.485,4.558,1.587,1.049,1.118,2.552-2.246,1.207-2.246,1.207-13.2-4.37-13.814-4.464-.329.611-.329.611,14.73,5,15.858,5.356,1.68.919,1.327,2.47-2.314,1.195-2.314,1.195-14.741-4.582-17.691-5.427c-3.218-.922-3.064-5.487-3.346-6.826s-.876-5.718-3.746-5.659a3.928,3.928,0,0,0-3.937,3.491,6.507,6.507,0,0,0,.078,2.321c.768,3.725-.4,3.854-.4,3.854-3.172.423-4.24-5.756-4.24-5.756-33.549-5.5-44.291,22.424-44.291,22.424,3.47-49.416,57.035-37.725,57.035-37.725Z" fill="#1ca6b0"/>
  </g>
</svg>
