<svg xmlns="http://www.w3.org/2000/svg" width="75.717" height="80.754" viewBox="0 0 75.717 80.754">
  <g id="Group_144" data-name="Group 144" transform="translate(-297.263 -241.585)">
    <g id="Group_143" data-name="Group 143" transform="translate(297.263 241.585)">
      <path id="Path_166" data-name="Path 166" d="M372.94,255.113c-.722-5.048-12.4,2.887-21.2,3.754,0,0,11.393-13.849,8.508-17.022S340,265.587,337.678,265.5c-1.346-.048,11.75-19.186,9.009-22.07s-13.988,21.205-16.728,23.225-7.067,3.03-7.788,5.482-9.95,16.3-17.161,21.638-11.681,16.3-2.88,28.56c0,0,5.479-15,20.335-13.994s32.6.716,37.5-11.545c0,0-2.452-2.163-6.635-.72-.317.109-.659.231-1.021.359a9.769,9.769,0,1,1,3.11-7.146,9.836,9.836,0,0,1-.13,1.586c.384,1.656.96,3.215,1.791,3.47,1.875.577,2.741.577,2.74-1.3s1.008-8.51-.29-10.529-5.482-7.067-5.482-7.067-2.308-2.019-3.174-1.875-9.087,0-9.087,0-2.019-.144,7.356-4.761,12.4-4.473,13.846-6.06S373.662,260.161,372.94,255.113Z" transform="translate(-297.263 -241.585)" fill="#1ca6b0"/>
    </g>
    <path id="Path_167" data-name="Path 167" d="M463.584,392.282s-1.117-5.112.2-6.449A11.7,11.7,0,0,1,463.584,392.282Z" transform="translate(-118.027 -102.636)" fill="#1ca6b0"/>
    <path id="Path_168" data-name="Path 168" d="M469.232,407.663s-3.737.837-4.714-.152A8.343,8.343,0,0,1,469.232,407.663Z" transform="translate(-119.006 -117.873)" fill="#1ca6b0"/>
    <circle id="Ellipse_36" data-name="Ellipse 36" cx="0.372" cy="0.372" r="0.372" transform="translate(345.185 289.274)" fill="#1ca6b0"/>
    <rect id="Rectangle_201" data-name="Rectangle 201" width="0.192" height="1.202" transform="translate(345.611 281.37)" fill="#1ca6b0"/>
    <rect id="Rectangle_202" data-name="Rectangle 202" width="0.192" height="1.202" transform="translate(345.551 296.058)" fill="#1ca6b0"/>
    <rect id="Rectangle_203" data-name="Rectangle 203" width="0.192" height="1.202" transform="translate(353.785 289.315) rotate(90)" fill="#1ca6b0"/>
    <rect id="Rectangle_204" data-name="Rectangle 204" width="0.192" height="1.202" transform="translate(338.123 289.58) rotate(90)" fill="#1ca6b0"/>
    <rect id="Rectangle_205" data-name="Rectangle 205" width="0.192" height="0.833" transform="translate(339.211 283.984) rotate(-47.94)" fill="#1ca6b0"/>
    <rect id="Rectangle_206" data-name="Rectangle 206" width="0.192" height="0.833" transform="translate(339.203 295.067) rotate(-129.983)" fill="#1ca6b0"/>
    <rect id="Rectangle_207" data-name="Rectangle 207" width="0.192" height="0.833" transform="translate(350.919 284.425) rotate(-132.06)" fill="#1ca6b0"/>
    <rect id="Rectangle_208" data-name="Rectangle 208" width="0.192" height="0.833" transform="translate(350.907 294.415) rotate(-50.017)" fill="#1ca6b0"/>
    <path id="Path_169" data-name="Path 169" d="M431.264,351.486l-.534.006c-.34,0-.825.006-1.407,0s-1.262-.015-1.988-.035-1.5-.047-2.278-.075-1.551-.068-2.277-.11-1.4-.091-1.985-.127-1.064-.085-1.4-.11l-.532-.05.534-.006c.34,0,.825-.007,1.407,0s1.262.014,1.988.035,1.5.047,2.278.076,1.551.068,2.277.11,1.4.09,1.985.126,1.064.085,1.4.11Z" transform="translate(-86.519 -77.832)" fill="#f2f2f2"/>
    <path id="Path_170" data-name="Path 170" d="M455.678,294.25l-.775.4c-.5.249-1.2.616-2.052,1.037s-1.844.921-2.915,1.437l-3.355,1.619-3.371,1.585c-1.075.507-2.089.959-2.953,1.358s-1.592.713-2.1.941l-.8.35.775-.4c.5-.249,1.2-.616,2.052-1.036s1.844-.921,2.915-1.437l3.355-1.619,3.371-1.585c1.076-.506,2.089-.959,2.953-1.358s1.592-.713,2.1-.941Z" transform="translate(-99.682 -37.473)" fill="#f2f2f2"/>
  </g>
</svg>
