<svg xmlns="http://www.w3.org/2000/svg" width="115.192" height="78.106" viewBox="0 0 115.192 78.106">
  <g id="Group_140" data-name="Group 140" transform="translate(-85.491 -55.814)">
    <path id="Path_145" data-name="Path 145" d="M339.6,313.249s-4.831-16.425-16.812-13.334-23.318,13.658-27.247,13.72c-4.058.064-36.909-18.744-36.909-18.744s-1.739-1.449-.193-4.348,4.638-1.063,4.638-1.063-1.932-1.063-1.159-2.705,2.512-4.251,6.667-1.739c0,0-2.705-2.126-.29-3.092a5.331,5.331,0,0,1,6.28.966s1.643-2.319,3.768-1.159,9.082,5.8,11.884,4.251,5.411-.483,7.536-1.159,10.918-7.73,19.324-5.99S340.757,286.872,339.6,313.249Z" transform="translate(-138.977 -179.716)" fill="#1ca6b0"/>
    <path id="Path_146" data-name="Path 146" d="M396.768,316s-.549.183-1.476.582c-.463.2-1.02.456-1.638.788a13,13,0,0,0-1.963,1.278,5.89,5.89,0,0,0-.935.934,2.7,2.7,0,0,0-.579,1.235,1.814,1.814,0,0,0-.026.348v.044c0,.006,0-.015,0,0l0,.012,0,.023.011.094a.919.919,0,0,0,.03.181,1.576,1.576,0,0,0,.314.609,2.974,2.974,0,0,0,1.265.789,10.4,10.4,0,0,0,3.232.472,18.888,18.888,0,0,0,3.4-.269c.281-.048.56-.1.833-.171.137-.033.271-.072.4-.114l.407-.138a6.643,6.643,0,0,1,1.733-.31c1.16-.055,2.276.073,3.352.108.536.022,1.071.021,1.578.015a14.84,14.84,0,0,0,1.507-.141c.977-.138,1.9-.315,2.743-.494s1.62-.353,2.3-.513,1.281-.306,1.771-.429l1.539-.39s-.549.179-1.52.463-2.359.684-4.048,1.082c-.844.2-1.764.4-2.749.561a15.224,15.224,0,0,1-1.528.179c-.535.023-1.064.019-1.61,0-1.087-.028-2.205-.145-3.319-.083a6.28,6.28,0,0,0-1.633.3l-.409.142c-.142.047-.285.089-.428.125-.286.075-.573.133-.861.183a19.267,19.267,0,0,1-3.468.248,10.716,10.716,0,0,1-3.341-.517,3.174,3.174,0,0,1-1.394-.9,1.849,1.849,0,0,1-.365-.764,1.062,1.062,0,0,1-.027-.194l-.009-.094,0-.024v-.012c0,.007,0-.022,0-.024l0-.05a2.1,2.1,0,0,1,.039-.4,2.65,2.65,0,0,1,.252-.729,3.907,3.907,0,0,1,.41-.612,6.112,6.112,0,0,1,.994-.95,11.762,11.762,0,0,1,2.032-1.236c.635-.311,1.2-.548,1.675-.73s.849-.308,1.107-.391Z" transform="translate(-245.521 -209.908)" fill="#fff"/>
    <path id="Path_147" data-name="Path 147" d="M419.023,350.5c-.495.165-.989.328-1.479.5s-.98.349-1.465.533c-.972.365-1.936.748-2.879,1.175-.237.1-.471.214-.7.324s-.465.225-.692.347-.456.241-.681.365-.446.256-.661.4c-.109.068-.217.137-.322.211s-.215.139-.316.218-.207.15-.307.229l-.3.242-.28.257c-.09.089-.175.181-.264.272s-.16.193-.241.29-.139.207-.21.31l-.086.126-.114-.08a1.753,1.753,0,0,0-.166-.1c-.059-.032-.119-.062-.182-.089a2.374,2.374,0,0,0-.384-.13l-.2-.037-.2-.017-.2.006c-.068,0-.134.019-.2.028a1.149,1.149,0,0,0-.2.051.934.934,0,0,0-.193.072c-.062.03-.126.057-.188.09l-.175.115a.993.993,0,0,0-.167.128l-.161.138c-.053.047-.1.1-.147.153l-.146.157.127-.173c.043-.057.083-.118.13-.172l.15-.156a1.044,1.044,0,0,1,.16-.146l.172-.135c.061-.04.126-.074.19-.112a1.02,1.02,0,0,1,.2-.095,1.269,1.269,0,0,1,.21-.074c.072-.016.145-.039.218-.05l.224-.024.225,0c.074.007.149.018.223.027a2.6,2.6,0,0,1,.434.117,2.1,2.1,0,0,1,.208.087,1.939,1.939,0,0,1,.2.113l-.2.045c.07-.115.137-.234.212-.346s.158-.219.243-.323.175-.2.268-.3l.287-.279.3-.261c.1-.085.208-.164.312-.246.211-.159.427-.313.651-.453s.448-.278.675-.412.458-.259.693-.376.471-.233.707-.346.476-.219.717-.323c.963-.413,1.948-.767,2.943-1.082.5-.153,1-.3,1.505-.431S418.511,350.6,419.023,350.5Z" transform="translate(-257.824 -237.741)" fill="#fff"/>
    <path id="Path_148" data-name="Path 148" d="M281.61,333.5c.725.313,1.441.643,2.161.966s1.434.657,2.15.989l2.14,1.009c.712.34,1.425.677,2.133,1.023l-.047-.015c.539.106,1.066.231,1.594.363s1.05.283,1.571.438q1.562.468,3.076,1.087a22.881,22.881,0,0,1,2.927,1.443c.236.136.465.284.691.435l.337.23.329.242c.111.079.215.167.322.251s.212.169.313.26c.208.175.4.368.592.557-.208-.174-.415-.347-.634-.507-.106-.084-.216-.162-.327-.239s-.219-.157-.334-.228l-.34-.219-.347-.207c-.234-.134-.468-.267-.706-.393a26.2,26.2,0,0,0-2.945-1.321c-1-.39-2.03-.721-3.062-1.03q-.775-.228-1.559-.426c-.521-.134-1.047-.261-1.57-.368l-.026-.005-.021-.01c-.708-.346-1.413-.7-2.118-1.054L285.8,335.7c-.7-.361-1.4-.719-2.1-1.089S282.3,333.879,281.61,333.5Z" transform="translate(-158.189 -224.026)" fill="#fff"/>
    <path id="Path_149" data-name="Path 149" d="M309.11,309.5s.235.1.642.3.989.463,1.68.8,1.5.736,2.355,1.172l1.321.676,1.358.707,1.352.719.659.352.651.336c.855.442,1.649.863,2.326,1.229s1.237.682,1.631.9.614.349.614.349-.237-.1-.648-.282-1-.441-1.7-.766-1.512-.7-2.379-1.123l-.66-.319c-.23-.111-.446-.226-.672-.343l-1.358-.708-1.352-.719-1.3-.706c-.845-.46-1.63-.9-2.3-1.277s-1.222-.707-1.612-.931S309.11,309.5,309.11,309.5Z" transform="translate(-180.375 -204.664)" fill="#fff"/>
    <path id="Path_150" data-name="Path 150" d="M341.61,298.5s.425.167,1.036.463c.307.146.66.323,1.035.521.186.1.382.2.575.308l.589.328.583.339c.193.11.378.228.559.337.361.221.695.435.977.624.566.375.926.655.926.655s-.425-.167-1.036-.462c-.307-.146-.66-.323-1.035-.521-.186-.1-.382-.2-.575-.309l-.589-.328-.582-.339c-.193-.111-.378-.228-.559-.337-.361-.221-.695-.435-.977-.624C341.971,298.78,341.61,298.5,341.61,298.5Z" transform="translate(-206.595 -195.789)" fill="#fff"/>
    <path id="Path_151" data-name="Path 151" d="M416.572,77.879s-9.082-21.063-28.406-22.029-30.532,17.778-28.793,23.382,5.991,14.686,10.822,14.686c0,0,.966,3.478,6.377,2.319,0,0,1.79,1.939,5.24.313a1.628,1.628,0,0,0,.711-2.278C380.617,90.924,376.2,82.5,378.5,80.2c2.9-2.9,9.662-8.7,11.208-7.343s8.479,9.028,10.049,10.822c1.8,2.061,5.8,2.319,5.6-.58s-6.377-12.754-3.478-12.947S407.3,69.827,416.572,77.879Z" transform="translate(-220.782)" fill="#1ca6b0"/>
    <path id="Path_152" data-name="Path 152" d="M426.7,182.817s-.175-.312-.464-.866-.7-1.348-1.165-2.314-.993-2.1-1.52-3.335c-.263-.617-.53-1.257-.783-1.915s-.5-1.33-.731-2.011-.431-1.371-.6-2.063c-.085-.345-.152-.693-.2-1.042a4.941,4.941,0,0,1-.055-1.055q.019-.25.037-.5l.1-.5a3.3,3.3,0,0,1,.134-.475,3.633,3.633,0,0,1,.162-.45l.187-.425c.071-.135.144-.265.216-.394a3.64,3.64,0,0,1,.228-.368c.08-.117.152-.236.235-.343a9.18,9.18,0,0,1,.97-1.112,10.7,10.7,0,0,1,.849-.75c.244-.2.449-.335.588-.428s.217-.139.217-.139a9.484,9.484,0,0,0-.753.628,10.557,10.557,0,0,0-.79.795c-.142.163-.295.335-.44.528s-.3.4-.447.613c-.075.109-.14.227-.212.344a3.453,3.453,0,0,0-.2.365l-.193.386-.164.412a3.368,3.368,0,0,0-.139.432,3.051,3.051,0,0,0-.11.448l-.08.458q-.013.246-.026.5a4.578,4.578,0,0,0,.072.976c.056.332.126.668.209,1.006.166.675.375,1.353.6,2.026s.464,1.344.712,2,.495,1.3.746,1.919c.5,1.24.982,2.39,1.4,3.376s.769,1.806,1.023,2.377Z" transform="translate(-270.786 -85.935)" fill="#fff"/>
    <path id="Path_153" data-name="Path 153" d="M393.038,167.484s-.175-.312-.464-.866-.7-1.348-1.165-2.315-.993-2.1-1.52-3.335c-.263-.617-.53-1.257-.783-1.915s-.5-1.33-.731-2.011-.431-1.371-.6-2.063c-.085-.345-.152-.693-.2-1.042a4.93,4.93,0,0,1-.054-1.055l.036-.5.1-.5a3.323,3.323,0,0,1,.134-.475,3.648,3.648,0,0,1,.162-.449l.187-.425c.071-.134.144-.265.216-.394a3.629,3.629,0,0,1,.228-.368c.08-.117.152-.236.235-.344a9.172,9.172,0,0,1,.97-1.112,10.676,10.676,0,0,1,.849-.75c.244-.2.449-.335.588-.428s.217-.138.217-.138a9.439,9.439,0,0,0-.753.628,10.6,10.6,0,0,0-.79.795c-.142.163-.295.335-.439.528s-.3.4-.448.613c-.075.109-.139.227-.212.344a3.486,3.486,0,0,0-.2.365l-.193.386-.164.412a3.416,3.416,0,0,0-.139.432,3.051,3.051,0,0,0-.11.448l-.08.458-.026.5a4.605,4.605,0,0,0,.072.976c.056.332.126.668.209,1.005.165.675.375,1.353.6,2.026s.463,1.344.712,2,.495,1.3.746,1.919c.5,1.24.982,2.39,1.4,3.376s.769,1.806,1.023,2.377Z" transform="translate(-243.626 -73.565)" fill="#fff"/>
    <path id="Path_154" data-name="Path 154" d="M200.778,258.3H161.486l-14.042-4.638,39.421,1.159Z" transform="translate(-49.949 -159.62)" fill="#1ca6b0"/>
    <g id="Group_138" data-name="Group 138" transform="translate(85.53 91.789)">
      <path id="Path_155" data-name="Path 155" d="M142.277,247.221H102.985l-14.042-4.638,39.421,1.159Z" transform="translate(-88.283 -242.467)" fill="#1ca6b0" stroke="#fff" stroke-width="0.25"/>
      <path id="Path_156" data-name="Path 156" d="M140.309,246.833l-40.108,0L85.53,241.983l40.1,1.182Zm-40.062-.193h38.492L125.6,243.355l-38.749-1.14Z" transform="translate(-85.53 -241.983)" fill="#1ca6b0" stroke="#fff" stroke-width="0.25"/>
    </g>
    <g id="Group_139" data-name="Group 139" transform="translate(91.198 89.744)">
      <path id="Path_157" data-name="Path 157" d="M171.61,236.638H132.318L118.275,232l39.421,1.159Z" transform="translate(-117.616 -231.884)" fill="#1ca6b0" stroke="#fff" stroke-width="0.25"/>
      <path id="Path_158" data-name="Path 158" d="M169.641,236.25l-40.108,0L114.862,231.4l40.1,1.182Zm-40.062-.193h38.492l-13.142-3.285-38.749-1.14Z" transform="translate(-114.862 -231.399)" fill="#1ca6b0" stroke="#fff" stroke-width="0.25"/>
    </g>
  </g>
</svg>
