<svg xmlns="http://www.w3.org/2000/svg" width="82.922" height="68.636" viewBox="0 0 82.922 68.636">
  <g id="Group_147" data-name="Group 147" transform="translate(-452.777 -206.969)">
    <path id="Path_171" data-name="Path 171" d="M481.63,238.672a13.66,13.66,0,0,0,11.719-3.2c5.238-4.794,13.761-8.878,15-10.387s7.9-9.144,6.925-14.027,3.462-4.972,5.593-2.486,4.528,11.1.089,18.733-4.528,8.168-2.486,10.565,7.547,2.308,10.565,4.261,6.747,0,6.659,5.948-4,5.416-4,5.416.71,5.149-3.107,7.724c0,0,.888,7.1-4.528,7.813,0,0,.8,4-3.906,5.149s-16.513,4.528-30.008-6.215a30.306,30.306,0,0,1-7.99-1.509c-4.528-1.6-16.069-20.6-29.386.71C452.777,267.171,456.683,230.416,481.63,238.672Z" transform="translate(0)" fill="#1ca6b0"/>
    <path id="Path_172" data-name="Path 172" d="M666.11,318.667s.309.125.857.322,1.337.46,2.292.746c.478.141,1,.286,1.551.427s1.14.273,1.748.405,1.241.248,1.886.347,1.3.185,1.963.239l.993.1.493.052.492.072c.327.047.651.1.967.163s.63.12.935.2.606.138.9.227.574.162.847.255.539.174.792.269.5.181.731.276c.467.18.885.371,1.252.547s.682.339.938.478c.512.28.788.469.788.469s-.288-.169-.811-.423c-.262-.127-.581-.277-.955-.434-.186-.079-.385-.163-.6-.243s-.433-.172-.668-.254-.478-.172-.733-.254-.519-.167-.793-.246-.556-.157-.846-.23-.587-.146-.89-.213-.613-.129-.927-.186-.633-.109-.955-.152l-.485-.067-.494-.047-.992-.093c-.666-.061-1.329-.154-1.978-.259s-1.284-.232-1.9-.366-1.2-.289-1.749-.444-1.07-.317-1.546-.472A27.962,27.962,0,0,1,666.11,318.667Z" transform="translate(-156.514 -81.948)" fill="#fff"/>
    <path id="Path_173" data-name="Path 173" d="M732.812,379.248s-.442-.178-1.118-.4c-.167-.058-.351-.115-.545-.174l-.613-.177c-.428-.112-.883-.236-1.345-.327-.23-.053-.461-.1-.69-.135s-.453-.078-.672-.108-.43-.059-.632-.081-.392-.044-.569-.052l-.483-.034-.374-.01-.327-.014.325-.038.375-.038c.145-.009.309-.014.488-.016s.374,0,.579.008.423.013.646.042.455.043.686.087.469.077.7.129.466.109.694.168.448.133.663.2c.426.141.815.295,1.144.436s.594.28.78.375S732.812,379.248,732.812,379.248Z" transform="translate(-200.044 -125.216)" fill="#fff"/>
    <path id="Path_174" data-name="Path 174" d="M727.145,409.081s-.443-.177-1.118-.4c-.168-.058-.351-.115-.545-.174l-.613-.177c-.428-.113-.883-.236-1.345-.327-.23-.053-.461-.1-.69-.135s-.453-.078-.672-.107-.43-.059-.632-.081-.392-.044-.569-.051l-.483-.034-.374-.01-.327-.014.325-.038.375-.038c.145-.01.309-.014.488-.017s.374,0,.579.008.423.013.646.042.455.043.687.087.469.077.7.129.466.109.694.168.448.133.663.2c.426.141.815.295,1.144.435s.594.28.78.375S727.145,409.081,727.145,409.081Z" transform="translate(-195.886 -147.104)" fill="#fff"/>
    <path id="Path_175" data-name="Path 175" d="M708.736,439.032s-.454-.145-1.144-.315c-.171-.046-.359-.089-.557-.133l-.625-.132c-.435-.081-.9-.171-1.366-.228-.233-.036-.467-.064-.7-.084s-.458-.044-.678-.058-.434-.027-.636-.034-.394-.016-.572-.01h-.484l-.374.018-.327.01L701.6,438l.372-.065c.144-.02.307-.037.486-.052s.372-.029.578-.035.423-.018.647-.006.457.01.691.036.473.043.71.077.473.074.7.116.456.1.676.147c.435.109.834.234,1.173.35s.613.236.8.317S708.736,439.032,708.736,439.032Z" transform="translate(-182.314 -169.381)" fill="#fff"/>
    <g id="Group_146" data-name="Group 146" transform="translate(496.446 243.972)">
      <path id="Path_176" data-name="Path 176" d="M628.668,355.708l-.527,2.212h-3.683a2.982,2.982,0,0,0,3.112,2.273,8.067,8.067,0,0,0,4.911-1.7v4.534a7.9,7.9,0,0,1-4.583,1.3q-4.339,0-6.418-1.981a8.168,8.168,0,0,1-2.54-4.424h-2.2l.587-2.212h1.337a5.747,5.747,0,0,1-.024-.644q0-.486.024-.705h-1.62l.575-2.212h1.325q1.58-6.248,8.679-6.248a10.133,10.133,0,0,1,4.7,1.24l-1.094,4.412a5.07,5.07,0,0,0-3.452-1.519,3.127,3.127,0,0,0-3.185,2.115h4.38l-.527,2.212h-4.279q-.024.243-.024.705v.644Z" transform="translate(-616.736 -345.899)" fill="#f2f2f2"/>
    </g>
  </g>
</svg>
