<svg xmlns="http://www.w3.org/2000/svg" xmlns:xlink="http://www.w3.org/1999/xlink" width="74.685" height="61.247" viewBox="0 0 74.685 61.247">
  <defs>
    <filter id="Path_177" x="0" y="0" width="66.803" height="61.247" filterUnits="userSpaceOnUse">
      <feOffset dy="3" input="SourceAlpha"/>
      <feGaussianBlur stdDeviation="3" result="blur"/>
      <feFlood flood-opacity="0.161"/>
      <feComposite operator="in" in2="blur"/>
      <feComposite in="SourceGraphic"/>
    </filter>
    <filter id="Path_180" x="17.248" y="16.318" width="57.437" height="33.649" filterUnits="userSpaceOnUse">
      <feOffset dy="3" input="SourceAlpha"/>
      <feGaussianBlur stdDeviation="3" result="blur-2"/>
      <feFlood flood-opacity="0.161"/>
      <feComposite operator="in" in2="blur-2"/>
      <feComposite in="SourceGraphic"/>
    </filter>
  </defs>
  <g transform="matrix(1, 0, 0, 1, 0, 0)" filter="url(#Path_177)">
    <path id="Path_177-2" data-name="Path 177" d="M719.248,161.253s8.449-7.822,1.565-17.053-18.3-2.19-20.652,2.5c0,0-6.332-12.662-18.3-4.693-11.111,7.394-.782,19.556.782,21.277s17.523,16.9,17.523,16.9l6.866-6.81" transform="translate(-666.74 -132.33)" fill="#2889b0" stroke="#2b83b0" stroke-miterlimit="10" stroke-width="2"/>
  </g>
  <g id="Group_149" data-name="Group 149" transform="translate(-666.739 -131.331)">
    <g id="Group_148" data-name="Group 148">
      <path id="Path_178" data-name="Path 178" d="M697.878,164.795a3.286,3.286,0,0,0-3.245,3.325c0,.094.009.188.018.28a3.282,3.282,0,0,0,6.528.053,3.173,3.173,0,0,0,.023-.414A3.285,3.285,0,0,0,697.878,164.795Zm-1.62,2.067.678.662a1.128,1.128,0,0,0-.116.29l-.944.012A2.045,2.045,0,0,1,696.258,166.862Zm-.373,1.532.944-.011a1.074,1.074,0,0,0,.125.283l-.666.682A2.045,2.045,0,0,1,695.885,168.394Zm1.762.782.012.947a2.041,2.041,0,0,1-.958-.384l.66-.676a1.079,1.079,0,0,0,.286.113Zm-.039-3.13.012.945a1.124,1.124,0,0,0-.288.125l-.678-.661a2.043,2.043,0,0,1,.954-.409Zm2.345,1.73-.944.012a1.115,1.115,0,0,0-.123-.288l.662-.678A2.058,2.058,0,0,1,699.953,167.776Zm-1.764-.792-.011-.945a2.044,2.044,0,0,1,.964.385l-.661.678a1.111,1.111,0,0,0-.292-.118Zm.039,3.132-.012-.947a1.1,1.1,0,0,0,.284-.119l.676.66A2.057,2.057,0,0,1,698.228,170.116Zm1.348-.81-.68-.663a1.143,1.143,0,0,0,.116-.287l.951-.012A2.06,2.06,0,0,1,699.576,169.306Z" fill="#2889b0" stroke="#fff" stroke-miterlimit="10" stroke-width="0.5"/>
      <path id="Path_179" data-name="Path 179" d="M725.034,164.462a3.286,3.286,0,0,0-3.245,3.325c0,.1.009.188.018.281a3.282,3.282,0,0,0,6.528.052,3.538,3.538,0,0,0,.024-.413A3.286,3.286,0,0,0,725.034,164.462Zm-1.621,2.067.679.662a1.149,1.149,0,0,0-.116.291l-.944.011A2.064,2.064,0,0,1,723.413,166.529Zm-.372,1.533.943-.012a1.109,1.109,0,0,0,.126.283l-.666.683A2.053,2.053,0,0,1,723.041,168.062Zm1.762.781.012.947a2.055,2.055,0,0,1-.958-.383l.66-.677a1.094,1.094,0,0,0,.286.113Zm-.038-3.13.012.945a1.117,1.117,0,0,0-.289.126l-.677-.662a2.039,2.039,0,0,1,.954-.409Zm2.344,1.73-.944.012a1.13,1.13,0,0,0-.123-.288l.663-.678A2.051,2.051,0,0,1,727.109,167.443Zm-1.775-1.737a2.059,2.059,0,0,1,.964.386l-.661.677a1.147,1.147,0,0,0-.292-.118Zm.05,4.078-.012-.948a1.1,1.1,0,0,0,.284-.119l.675.66A2.04,2.04,0,0,1,725.384,169.784Zm1.349-.811-.68-.663a1.143,1.143,0,0,0,.116-.287l.951-.011A2.067,2.067,0,0,1,726.733,168.973Z" fill="#2889b0" stroke="#fff" stroke-miterlimit="10" stroke-width="0.5"/>
      <g transform="matrix(1, 0, 0, 1, 666.74, 131.33)" filter="url(#Path_180)">
        <path id="Path_180-2" data-name="Path 180" d="M731.408,164.289a5.614,5.614,0,0,0-3.224-2.931,22.743,22.743,0,0,1-4.458-1.829,93.635,93.635,0,0,0-9.466-4.468,30.778,30.778,0,0,0-11.02-.785c-3.412.238-4.216.735-5.331,1.464a10.274,10.274,0,0,0-3.179,4.808,12.862,12.862,0,0,0,.07,2.009c-.058.621-1.15,1.868-1.3,3.141a3.556,3.556,0,0,0,.384,1.846,4.07,4.07,0,0,1,8.1.487c0,.092,0,.189-.009.289l19.078.066c-.013-.08-.028-.16-.036-.241-.011-.116-.019-.23-.021-.347a4.072,4.072,0,1,1,8.144-.1,3.931,3.931,0,0,1-.029.513c-.008.068-.021.135-.032.2l2.633.009A6.107,6.107,0,0,0,731.408,164.289Z" transform="translate(-666.74 -131.33)" fill="#2889b0" stroke="#fff" stroke-miterlimit="10" stroke-width="1"/>
      </g>
    </g>
  </g>
</svg>

