<svg xmlns="http://www.w3.org/2000/svg" xmlns:xlink="http://www.w3.org/1999/xlink" width="44.226" height="46" viewBox="0 0 44.226 46">
  <defs>
    <linearGradient id="linear-gradient" y1="0.5" x2="1" y2="0.5" gradientUnits="objectBoundingBox">
      <stop offset="0" stop-color="#fff"/>
      <stop offset="0" stop-color="#0098c3"/>
      <stop offset="1" stop-color="#155e95"/>
    </linearGradient>
    <linearGradient id="linear-gradient-4" x1="0" y1="0.5" x2="1" y2="0.5" xlink:href="#linear-gradient"/>
  </defs>
  <g id="logo" transform="translate(-175.322 -268.151)">
    <path id="Path_212" data-name="Path 212" d="M249.813,312.553l8.014-.352s9.469.52,8.581-9.2h0a6.429,6.429,0,0,0-2.39-1.645c-1.46-.55-2.228-.906-2.22-4.211s.033.644.033.644a3.1,3.1,0,0,0-1.977-2.607h0s-9.31-1.208-9.985,9.051h0" transform="translate(-59.356 -21.207)" fill="#d3dce3"/>
    <path id="Path_213" data-name="Path 213" d="M262.925,308.213l6.163,6.163-.56.64-6.2-6.2Z" transform="translate(-69.554 -32.028)" fill="#fff"/>
    <path id="Path_214" data-name="Path 214" d="M263.183,317.777l-13.326,12.662-.124-1.072,13.119-12.374Z" transform="translate(-59.488 -39.047)" fill="#fff"/>
    <path id="Path_215" data-name="Path 215" d="M273.381,357.7l4.082,5.042-.96-.08-3.6-4.162Z" transform="translate(-78.009 -71.589)" fill="#fff"/>
    <path id="Path_216" data-name="Path 216" d="M308.419,327.051l4.842,4.842.12-.84L308.9,326.57Z" transform="translate(-106.404 -46.704)" fill="#fff"/>
    <path id="Path_217" data-name="Path 217" d="M233.4,274.631l2.833-.375.985.034c.388,1.675,1.024,2.051,1.41,2.011s.085-1.2.15-1.921.63-1.471,1.06-1.466a1.24,1.24,0,0,1,1.461.9s.4,1.679.531,2.516a1.194,1.194,0,0,0,.923.991s5.781,1.81,6.142,1.911a.712.712,0,0,0,.912-.558c.136-.512-.5-.751-.5-.751s-5.36-1.764-5.545-1.883.029-.2.029-.2,4.206,1.343,4.631,1.459.813.29,1.075-.443-.756-.932-.756-.932-4.173-1.381-4.385-1.484.049-.226.049-.226l3.635,1.174s1.033.405,1.2-.484-.9-.986-1.592-1.136-2.245.121-2.334-1a1.027,1.027,0,0,1-1.458-1.039s-1.464-.07-1.147-1.265c0,0-1.752.07-1-1.571,0,0-3.863-.339-5.663-.347h-.478c-14.209.3-14.1,14.645-14.1,14.645l-.22,13.651.6-.015-.239-.406a1.21,1.21,0,0,1,.07-1.248.911.911,0,0,0,.147-.868,2.9,2.9,0,0,1,1.081-1.981c.755-.688,3.212-.671,3.212-.671a7.654,7.654,0,0,1,2.878.349s2.1.91,2.694,1.29a7.249,7.249,0,0,0,1.378.637A2.464,2.464,0,0,1,235,296.712h0c-.065.259-.1.506.171.478,3.219-.329,6.263-1.066,8.237-2.528,6.123-4.532,6.327-10.521,6.327-10.521a14.887,14.887,0,0,0-.286-4.289c-.059-.164-6.43-2-7.307-2.509-.694-.4-.95-1.749-.98-2.185-.082-1.214-.453-2.023-1.173-1.936-.95.115-.905,1.005-.907,3.469,0,3.241.734,3.273,2.232,3.847a11.635,11.635,0,0,1,2.288,1.4c.087.065.14-.079.15.029.107,1.227.4,8.781-8.753,9.3l-7.641-.053s-.272-6.41-.045-8.745c0,0,.823-6.413,6.093-7.833" transform="translate(-36.723 -0.312)" fill="#0098c3"/>
    <path id="Path_218" data-name="Path 218" d="M329.5,275.866s.662.6,1.147.108.846-.91.5-1.315-.952-.169-1.333.25S329.23,275.5,329.5,275.866Z" transform="translate(-123.158 -5.035)" fill="url(#linear-gradient)"/>
    <path id="Path_219" data-name="Path 219" d="M335.526,279.888s-.4-.537-.074-.855,1.039-1.1,1.323-1.114.917.387.682.93a3.623,3.623,0,0,1-1.058,1.112A.8.8,0,0,1,335.526,279.888Z" transform="translate(-127.912 -7.81)" fill="url(#linear-gradient)"/>
    <path id="Path_220" data-name="Path 220" d="M342.629,284a.577.577,0,0,0,.184.7c.377.262.591.193.782.068s1.5-1.1,1.038-1.68S343.446,283.206,342.629,284Z" transform="translate(-133.714 -11.766)" fill="url(#linear-gradient)"/>
    <path id="Path_221" data-name="Path 221" d="M350.572,288.714a6.946,6.946,0,0,1,.995-.842c.147-.018.688.683.339,1.009S350.736,289.154,350.572,288.714Z" transform="translate(-140.104 -15.766)" fill="url(#linear-gradient-4)"/>
    <path id="Path_222" data-name="Path 222" d="M325.032,269.658c-.366-.475-1.169.274-1.169.274-.4.679.394,1.14.856.923C324.719,270.854,325.56,270.344,325.032,269.658Z" transform="translate(-118.664 -1.079)" fill="url(#linear-gradient)"/>
    <g id="Group_194" data-name="Group 194" transform="translate(184.997 291.635)">
      <g id="Group_193" data-name="Group 193">
        <path id="Path_223" data-name="Path 223" d="M226.558,403a1.1,1.1,0,0,0-1.083,1.11c0,.032,0,.063.006.094a1.1,1.1,0,0,0,2.18.017,1.052,1.052,0,0,0,.008-.138A1.1,1.1,0,0,0,226.558,403Zm-.541.69.227.221a.374.374,0,0,0-.039.1l-.315,0A.683.683,0,0,1,226.017,403.687Zm-.125.512.315,0a.365.365,0,0,0,.042.095l-.222.228A.689.689,0,0,1,225.892,404.2Zm.588.261,0,.316a.682.682,0,0,1-.32-.128l.22-.226a.373.373,0,0,0,.1.038Zm-.013-1.045,0,.316a.376.376,0,0,0-.1.042l-.226-.221a.682.682,0,0,1,.319-.137Zm.783.578-.315,0a.373.373,0,0,0-.041-.1l.221-.227A.688.688,0,0,1,227.251,403.992Zm-.589-.265,0-.316a.685.685,0,0,1,.322.129l-.221.226a.371.371,0,0,0-.1-.039Zm.013,1.046,0-.316a.37.37,0,0,0,.095-.04l.226.22A.685.685,0,0,1,226.675,404.774Zm.45-.271-.227-.221a.379.379,0,0,0,.039-.1l.317,0A.685.685,0,0,1,227.125,404.5Z" transform="translate(-225.092 -399.438)" fill="url(#linear-gradient)"/>
        <path id="Path_224" data-name="Path 224" d="M271.775,402.443a1.1,1.1,0,0,0-1.083,1.11c0,.032,0,.063.006.094a1.1,1.1,0,1,0,1.077-1.2Zm-.541.69.226.221a.373.373,0,0,0-.039.1l-.315,0A.683.683,0,0,1,271.234,403.133Zm-.125.512.315,0a.371.371,0,0,0,.042.095l-.222.228A.685.685,0,0,1,271.11,403.645Zm.589.261,0,.316a.682.682,0,0,1-.32-.128l.22-.226a.371.371,0,0,0,.1.038Zm-.013-1.045,0,.316a.37.37,0,0,0-.1.042l-.226-.221a.679.679,0,0,1,.319-.137Zm.783.578-.315,0a.368.368,0,0,0-.041-.1l.221-.227A.686.686,0,0,1,272.468,403.438Zm-.593-.58a.684.684,0,0,1,.322.129l-.221.226a.371.371,0,0,0-.1-.039Zm.017,1.362,0-.316a.36.36,0,0,0,.095-.04l.226.22A.684.684,0,0,1,271.892,404.22Zm.45-.271-.227-.221a.373.373,0,0,0,.039-.1l.318,0A.69.69,0,0,1,272.343,403.949Z" transform="translate(-261.24 -398.995)" fill="url(#linear-gradient)"/>
        <path id="Path_225" data-name="Path 225" d="M236.229,388.641a1.876,1.876,0,0,0-1.077-.979,7.584,7.584,0,0,1-1.489-.611,31.221,31.221,0,0,0-3.161-1.492,10.285,10.285,0,0,0-3.68-.262,2.971,2.971,0,0,0-1.78.489,3.433,3.433,0,0,0-1.062,1.605,4.3,4.3,0,0,0,.023.671c-.019.208-.384.624-.433,1.049a1.183,1.183,0,0,0,.128.616,1.359,1.359,0,0,1,2.706.163c0,.031,0,.063,0,.1l6.371.022c0-.027-.009-.053-.012-.08s-.007-.077-.007-.116a1.36,1.36,0,0,1,2.719-.033,1.306,1.306,0,0,1-.01.171c0,.023-.007.045-.011.067l.879,0A2.04,2.04,0,0,0,236.229,388.641Z" transform="translate(-223.565 -385.251)" fill="url(#linear-gradient)"/>
      </g>
    </g>
    <path id="Path_226" data-name="Path 226" d="M282.03,396.16" transform="translate(-85.308 -102.337)" fill="none" stroke="#0098c3" stroke-miterlimit="10" stroke-width="1.197"/>
    <g id="Group_195" data-name="Group 195" transform="translate(175.322 299.008)">
      <path id="Path_227" data-name="Path 227" d="M178.152,439.03a.2.2,0,0,1-.227.207h-2.376a.2.2,0,0,1-.227-.207v-13.9a.217.217,0,0,1,.227-.227h5.226a4.494,4.494,0,1,1,0,8.986h-2.623Zm2.334-7.829c1.095,0,2.086-.454,2.086-1.8,0-1.3-.888-1.818-2.086-1.818h-2.334v3.594Z" transform="translate(-175.322 -424.322)" fill="#0098c3"/>
      <path id="Path_228" data-name="Path 228" d="M236.856,446.677c.041-.1.1-.207.227-.186h1.88a.2.2,0,0,1,.207.207v9.461a.213.213,0,0,1-.228.207h-1.88c-.124,0-.186-.083-.227-.207l-.31-.95a3.482,3.482,0,0,1-2.892,1.384c-2.975.021-4.958-2.086-4.958-5.144a4.772,4.772,0,0,1,4.958-5.123,3.415,3.415,0,0,1,2.892,1.343Zm-3.078,7.23a2.459,2.459,0,1,0,0-4.917,2.3,2.3,0,0,0-2.438,2.458A2.337,2.337,0,0,0,233.779,453.907Z" transform="translate(-217.976 -441.451)" fill="#0098c3"/>
      <path id="Path_229" data-name="Path 229" d="M296.4,448.847a1.765,1.765,0,0,0-1.549,1.054v6.094a.2.2,0,0,1-.227.207h-2.272a.2.2,0,0,1-.207-.207l-.02-9.461a.2.2,0,0,1,.227-.207h1.57a.282.282,0,0,1,.289.207l.227.6a3.6,3.6,0,0,1,2.479-1.012,5.466,5.466,0,0,1,1.487.248.2.2,0,0,1,.144.268l-.558,2.376a.205.205,0,0,1-.207.144.224.224,0,0,1-.1-.021A3.668,3.668,0,0,0,296.4,448.847Z" transform="translate(-268.7 -441.286)" fill="#0098c3"/>
      <path id="Path_230" data-name="Path 230" d="M338.788,427.077c.227,0,.248.082.1.269l-3.429,4.421,4.09,4.9c.165.206.124.268-.1.268h-2.975a.3.3,0,0,1-.269-.1l-3.367-4.152v4.07a.185.185,0,0,1-.186.186h-2.314a.185.185,0,0,1-.186-.186l-.02-14.543a.191.191,0,0,1,.207-.186h2.314a.185.185,0,0,1,.186.186v8.7l2.706-3.718a.229.229,0,0,1,.207-.1Z" transform="translate(-299.085 -422.016)" fill="#0098c3"/>
      <path id="Path_231" data-name="Path 231" d="M380.751,422.737a1.572,1.572,0,0,1,1.674,1.673,1.589,1.589,0,0,1-1.674,1.694,1.6,1.6,0,0,1-1.694-1.694A1.588,1.588,0,0,1,380.751,422.737Zm1.343,14.564a.2.2,0,0,1-.207.207h-2.272a.2.2,0,0,1-.207-.207v-9.461a.2.2,0,0,1,.227-.207h2.272a.185.185,0,0,1,.186.186Z" transform="translate(-338.198 -422.592)" fill="#0098c3"/>
    </g>
    <path id="Path_232" data-name="Path 232" d="M290.247,315.482s11.676-6.169,8.558-14.86a11.57,11.57,0,0,0-2.827-1.6c-1.791-.73-1.678-1.848-1.744-3.108s-.408-3.98.907-4.04c.948-.043,1.077.652,1.143,1.514s.2,2.189,1.194,2.654,7.1,2.455,7.1,2.455,1.915,5.705-2.794,11.676A13.944,13.944,0,0,1,290.247,315.482Z" transform="translate(-91.877 -18.967)" fill="url(#linear-gradient)"/>
    <path id="Path_233" data-name="Path 233" d="M243.035,268.576c-.663,1.741,1,1.571,1,1.571a8.15,8.15,0,0,0,2.605,2.3c.05,1.078,1.9.921,2.465,1.039.666.139,1.617.253,1.461,1.1a.716.716,0,0,1-.9.547s-3.715-1.211-3.914-1.211-.083.232-.083.232,4.329,1.41,4.76,1.609.56.37.394.9-.793.426-.793.426-4.66-1.542-4.876-1.576-.116.216-.116.216,5.2,1.766,5.6,1.891.593.324.469.872-.817.422-.817.422-5.2-1.617-6.244-1.915c-1.136-.325-1.082-1.937-1.181-2.409s-.309-2.018-1.322-2a1.386,1.386,0,0,0-1.39,1.232,2.291,2.291,0,0,0,.027.819c.271,1.315-.14,1.36-.14,1.36-1.119.149-1.5-2.032-1.5-2.032-11.841-1.94-15.633,7.915-15.633,7.915,1.225-17.442,20.131-13.315,20.131-13.315Z" transform="translate(-38.039)" fill="url(#linear-gradient)"/>
  </g>
</svg>
