<svg xmlns="http://www.w3.org/2000/svg" xmlns:xlink="http://www.w3.org/1999/xlink" width="60.183" height="51.402" viewBox="0 0 60.183 51.402">
  <defs>
    <filter id="Path_177" x="1.028" y="3.321" width="52.456" height="48.081" filterUnits="userSpaceOnUse">
      <feOffset dy="3" input="SourceAlpha"/>
      <feGaussianBlur stdDeviation="3" result="blur"/>
      <feFlood flood-opacity="0.161"/>
      <feComposite operator="in" in2="blur"/>
      <feComposite in="SourceGraphic"/>
    </filter>
    <filter id="Path_180" x="13.35" y="12.727" width="46.342" height="28.53" filterUnits="userSpaceOnUse">
      <feOffset dy="3" input="SourceAlpha"/>
      <feGaussianBlur stdDeviation="3" result="blur-2"/>
      <feFlood flood-opacity="0.161"/>
      <feComposite operator="in" in2="blur-2"/>
      <feComposite in="SourceGraphic"/>
    </filter>
    <filter id="Path_177-2" x="0" y="0" width="54.507" height="50.513" filterUnits="userSpaceOnUse">
      <feOffset dy="3" input="SourceAlpha"/>
      <feGaussianBlur stdDeviation="3" result="blur-3"/>
      <feFlood flood-opacity="0.161"/>
      <feComposite operator="in" in2="blur-3"/>
      <feComposite in="SourceGraphic"/>
    </filter>
    <filter id="Path_180-2" x="12.85" y="11.428" width="47.334" height="30.128" filterUnits="userSpaceOnUse">
      <feOffset dy="3" input="SourceAlpha"/>
      <feGaussianBlur stdDeviation="3" result="blur-4"/>
      <feFlood flood-opacity="0.161"/>
      <feComposite operator="in" in2="blur-4"/>
      <feComposite in="SourceGraphic"/>
    </filter>
  </defs>
  <g id="coup_de_coeur" data-name="coup de coeur" transform="translate(10.028 7.039)">
    <g id="coup_de_coeur-2" data-name="coup de coeur">
      <g id="Group_150" data-name="Group 150" transform="translate(0 2.283)">
        <g transform="matrix(1, 0, 0, 1, -10.03, -9.32)" filter="url(#Path_177)">
          <path id="Path_177-3" data-name="Path 177" d="M708.083,155.5s6.228-5.766,1.154-12.571-13.494-1.614-15.224,1.845c0,0-4.668-9.334-13.494-3.459-8.19,5.45-.576,14.416.576,15.684s12.917,12.456,12.917,12.456l5.061-5.02" transform="translate(-666.74 -130.06)" fill="#fff"/>
        </g>
        <g id="Group_149" data-name="Group 149" transform="translate(12.322 9.406)">
          <g id="Group_148" data-name="Group 148" transform="translate(0 0)">
            <path id="Path_178" data-name="Path 178" d="M697.025,164.795a2.422,2.422,0,0,0-2.392,2.451c0,.069.007.139.013.206a2.419,2.419,0,0,0,4.812.039,2.347,2.347,0,0,0,.017-.305A2.421,2.421,0,0,0,697.025,164.795Zm-1.194,1.524.5.488a.834.834,0,0,0-.085.214l-.7.009A1.507,1.507,0,0,1,695.831,166.319Zm-.275,1.129.7-.008a.79.79,0,0,0,.092.209l-.491.5A1.507,1.507,0,0,1,695.556,167.448Zm1.3.576.009.7a1.5,1.5,0,0,1-.706-.283l.486-.5a.8.8,0,0,0,.211.083Zm-.029-2.307.009.7a.829.829,0,0,0-.212.092l-.5-.487a1.506,1.506,0,0,1,.7-.3Zm1.729,1.275-.7.009a.826.826,0,0,0-.091-.212l.488-.5A1.517,1.517,0,0,1,698.555,166.992Zm-1.3-.584-.008-.7a1.506,1.506,0,0,1,.711.284l-.487.5a.817.817,0,0,0-.215-.087Zm.029,2.309-.009-.7a.808.808,0,0,0,.209-.088l.5.487A1.516,1.516,0,0,1,697.283,168.717Zm.994-.6-.5-.489a.843.843,0,0,0,.086-.212l.7-.009A1.519,1.519,0,0,1,698.277,168.12Z" transform="translate(-693.788 -156.938)" fill="none"/>
            <path id="Path_179" data-name="Path 179" d="M724.181,164.462a2.422,2.422,0,0,0-2.392,2.451c0,.07.007.139.013.207a2.42,2.42,0,0,0,4.812.038,2.6,2.6,0,0,0,.018-.3A2.422,2.422,0,0,0,724.181,164.462Zm-1.195,1.524.5.488a.85.85,0,0,0-.086.215l-.7.008A1.519,1.519,0,0,1,722.986,165.986Zm-.274,1.13.7-.009a.816.816,0,0,0,.093.209l-.491.5A1.514,1.514,0,0,1,722.712,167.116Zm1.3.576.009.7a1.514,1.514,0,0,1-.706-.282l.486-.5a.808.808,0,0,0,.211.083Zm-.028-2.307.009.7a.821.821,0,0,0-.213.093l-.5-.488a1.5,1.5,0,0,1,.7-.3Zm1.728,1.275-.7.009a.837.837,0,0,0-.091-.212l.489-.5A1.512,1.512,0,0,1,725.711,166.659Zm-1.308-1.28a1.518,1.518,0,0,1,.711.285l-.487.5a.845.845,0,0,0-.215-.087Zm.037,3.006-.009-.7a.807.807,0,0,0,.209-.088l.5.487A1.5,1.5,0,0,1,724.439,168.385Zm.994-.6-.5-.489a.848.848,0,0,0,.086-.212l.7-.008A1.522,1.522,0,0,1,725.433,167.787Z" transform="translate(-700.926 -156.851)" fill="none"/>
            <g transform="matrix(1, 0, 0, 1, -22.35, -18.73)" filter="url(#Path_180)">
              <path id="Path_180-3" data-name="Path 180" d="M721.44,161.621a4.139,4.139,0,0,0-2.377-2.161,16.764,16.764,0,0,1-3.286-1.348,69.023,69.023,0,0,0-6.978-3.294,22.688,22.688,0,0,0-8.123-.579c-2.515.175-3.108.542-3.93,1.079a7.574,7.574,0,0,0-2.343,3.544,9.474,9.474,0,0,0,.052,1.481c-.043.458-.848,1.377-.957,2.315a2.621,2.621,0,0,0,.283,1.361,3,3,0,0,1,5.974.359c0,.068,0,.139-.007.213l14.063.049c-.01-.059-.021-.118-.026-.178-.008-.086-.014-.17-.016-.256a3,3,0,0,1,6-.074,2.9,2.9,0,0,1-.021.378c-.006.05-.015.1-.024.149l1.941.007A4.5,4.5,0,0,0,721.44,161.621Z" transform="translate(-671.14 -135.41)" fill="#fff"/>
            </g>
          </g>
        </g>
      </g>
      <g id="Group_151" data-name="Group 151" transform="translate(0 0)">
        <g transform="matrix(1, 0, 0, 1, -10.03, -7.04)" filter="url(#Path_177-2)">
          <path id="Path_177-4" data-name="Path 177" d="M708.083,155.5s6.228-5.766,1.154-12.571-13.494-1.614-15.224,1.845c0,0-4.668-9.334-13.494-3.459-8.19,5.45-.576,14.416.576,15.684s12.917,12.456,12.917,12.456l5.061-5.02" transform="translate(-666.74 -132.34)" fill="#fff" stroke="#2b83b0" stroke-miterlimit="10" stroke-width="2"/>
        </g>
        <g id="Group_149-2" data-name="Group 149" transform="translate(12.322 10.88)">
          <g id="Group_148-2" data-name="Group 148">
            <path id="Path_178-2" data-name="Path 178" d="M697.025,164.795a2.422,2.422,0,0,0-2.392,2.451c0,.069.007.139.013.206a2.419,2.419,0,0,0,4.812.039,2.347,2.347,0,0,0,.017-.305A2.421,2.421,0,0,0,697.025,164.795Zm-1.194,1.524.5.488a.834.834,0,0,0-.085.214l-.7.009A1.507,1.507,0,0,1,695.831,166.319Zm-.275,1.129.7-.008a.79.79,0,0,0,.092.209l-.491.5A1.507,1.507,0,0,1,695.556,167.448Zm1.3.576.009.7a1.5,1.5,0,0,1-.706-.283l.486-.5a.8.8,0,0,0,.211.083Zm-.029-2.307.009.7a.829.829,0,0,0-.212.092l-.5-.487a1.506,1.506,0,0,1,.7-.3Zm1.729,1.275-.7.009a.826.826,0,0,0-.091-.212l.488-.5A1.517,1.517,0,0,1,698.555,166.992Zm-1.3-.584-.008-.7a1.506,1.506,0,0,1,.711.284l-.487.5a.817.817,0,0,0-.215-.087Zm.029,2.309-.009-.7a.808.808,0,0,0,.209-.088l.5.487A1.516,1.516,0,0,1,697.283,168.717Zm.994-.6-.5-.489a.843.843,0,0,0,.086-.212l.7-.009A1.519,1.519,0,0,1,698.277,168.12Z" transform="translate(-693.788 -156.938)" fill="none" stroke="#2b83b0" stroke-miterlimit="10" stroke-width="0.5"/>
            <path id="Path_179-2" data-name="Path 179" d="M724.181,164.462a2.422,2.422,0,0,0-2.392,2.451c0,.07.007.139.013.207a2.42,2.42,0,0,0,4.812.038,2.6,2.6,0,0,0,.018-.3A2.422,2.422,0,0,0,724.181,164.462Zm-1.195,1.524.5.488a.85.85,0,0,0-.086.215l-.7.008A1.519,1.519,0,0,1,722.986,165.986Zm-.274,1.13.7-.009a.816.816,0,0,0,.093.209l-.491.5A1.514,1.514,0,0,1,722.712,167.116Zm1.3.576.009.7a1.514,1.514,0,0,1-.706-.282l.486-.5a.808.808,0,0,0,.211.083Zm-.028-2.307.009.7a.821.821,0,0,0-.213.093l-.5-.488a1.5,1.5,0,0,1,.7-.3Zm1.728,1.275-.7.009a.837.837,0,0,0-.091-.212l.489-.5A1.512,1.512,0,0,1,725.711,166.659Zm-1.308-1.28a1.518,1.518,0,0,1,.711.285l-.487.5a.845.845,0,0,0-.215-.087Zm.037,3.006-.009-.7a.807.807,0,0,0,.209-.088l.5.487A1.5,1.5,0,0,1,724.439,168.385Zm.994-.6-.5-.489a.848.848,0,0,0,.086-.212l.7-.008A1.522,1.522,0,0,1,725.433,167.787Z" transform="translate(-700.926 -156.851)" fill="none" stroke="#2b83b0" stroke-miterlimit="10" stroke-width="0.5"/>
            <g transform="matrix(1, 0, 0, 1, -22.35, -17.92)" filter="url(#Path_180-2)">
              <path id="Path_180-4" data-name="Path 180" d="M721.44,161.621a4.139,4.139,0,0,0-2.377-2.161,16.764,16.764,0,0,1-3.286-1.348,69.023,69.023,0,0,0-6.978-3.294,22.688,22.688,0,0,0-8.123-.579c-2.515.175-3.108.542-3.93,1.079a7.574,7.574,0,0,0-2.343,3.544,9.474,9.474,0,0,0,.052,1.481c-.043.458-.848,1.377-.957,2.315a2.621,2.621,0,0,0,.283,1.361,3,3,0,0,1,5.974.359c0,.068,0,.139-.007.213l14.063.049c-.01-.059-.021-.118-.026-.178-.008-.086-.014-.17-.016-.256a3,3,0,0,1,6-.074,2.9,2.9,0,0,1-.021.378c-.006.05-.015.1-.024.149l1.941.007A4.5,4.5,0,0,0,721.44,161.621Z" transform="translate(-671.14 -136.22)" fill="#fff" stroke="#2b83b0" stroke-miterlimit="10" stroke-width="1"/>
            </g>
          </g>
        </g>
      </g>
    </g>
  </g>
</svg>
