<svg id="Calque_1" data-name="Calque 1" xmlns="http://www.w3.org/2000/svg" viewBox="0 0 143.67 131.95"><defs><style>.cls-1{fill:#797979;}</style></defs><path class="cls-1" d="M104.76,123.1H34.81a20.49,20.49,0,0,1-20.47-20.48V39.19A20.5,20.5,0,0,1,34.81,18.71v6A14.49,14.49,0,0,0,20.34,39.19v63.43A14.49,14.49,0,0,0,34.81,117.1h70a14.5,14.5,0,0,0,14.48-14.48V39.19a14.5,14.5,0,0,0-14.48-14.48v-6a20.51,20.51,0,0,1,20.48,20.48v63.43A20.5,20.5,0,0,1,104.76,123.1Z"/><rect class="cls-1" x="51.54" y="18.71" width="35.95" height="6"/><rect class="cls-1" x="36.88" y="11.05" width="12.38" height="22.81" rx="4"/><rect class="cls-1" x="89.57" y="11.05" width="12.38" height="22.81" rx="4"/><rect class="cls-1" x="33.63" y="45.55" width="16.72" height="16.72"/><rect class="cls-1" x="33.66" y="67.59" width="16.72" height="16.72"/><rect class="cls-1" x="33.66" y="88.88" width="16.72" height="16.72"/><rect class="cls-1" x="62.95" y="45.55" width="16.72" height="16.72"/><rect class="cls-1" x="63.33" y="67.59" width="16.72" height="16.72"/><rect class="cls-1" x="63.33" y="88.88" width="16.72" height="16.72"/><rect class="cls-1" x="91.29" y="45.55" width="16.72" height="16.72"/><rect class="cls-1" x="91.67" y="67.59" width="16.72" height="16.72"/><rect class="cls-1" x="91.67" y="88.88" width="16.72" height="16.72"/></svg>