<svg id="Calque_1" data-name="Calque 1" xmlns="http://www.w3.org/2000/svg" viewBox="0 0 148.56 156.38"><defs><style>.cls-1{fill:#1ba6b0;}.cls-2{fill:#fff;}</style></defs><path class="cls-1" d="M72.19,35.69l45.4,45.57a5.22,5.22,0,0,1,0,7.38l-7.14,7.14a5.21,5.21,0,0,1-7.38,0l-1.28-1.28L85.07,111.21S65,126.12,46.29,108.62s-7.56-40.57-.4-46.14S59.82,50.55,59.82,50.55l-1.54-1.83a5.23,5.23,0,0,1,.37-7.12l6.22-6A5.22,5.22,0,0,1,72.19,35.69Z"/><rect class="cls-1" x="79.9" y="29.97" width="30.13" height="8.05" rx="1.96" transform="translate(3.78 77.11) rotate(-45)"/><rect class="cls-1" x="103.77" y="53.38" width="30.13" height="8.05" rx="1.96" transform="translate(-5.79 100.84) rotate(-45)"/><polygon class="cls-1" points="40.52 101.27 23.52 116.78 34.56 127.81 50.52 111.86 40.52 101.27"/><polygon class="cls-2" points="65.98 54.25 75.31 54.25 66.57 77.64 80.63 69.61 74.13 98.89 78.86 97.48 70.35 109.29 66.45 95.23 70.83 98.31 72.12 80.83 58.42 88.74 65.98 54.25"/></svg>