<svg id="Calque_1" data-name="Calque 1" xmlns="http://www.w3.org/2000/svg" viewBox="0 0 144.65 145.63"><defs><style>.cls-1,.cls-2{fill:#1ba6b0;}.cls-2{stroke:#fff;stroke-miterlimit:10;}</style></defs><circle class="cls-1" cx="59.33" cy="37.7" r="17.97"/><path class="cls-1" d="M56.73,131A30.77,30.77,0,1,1,87.49,100.2,30.8,30.8,0,0,1,56.73,131Zm0-56.07A25.3,25.3,0,1,0,82,100.2,25.33,25.33,0,0,0,56.73,74.9Z"/><path class="cls-2" d="M58.65,96.77a3,3,0,0,1-1.89-.64l-24-18.27L55.26,51.61A3.12,3.12,0,0,1,60,55.67L41.81,76.9,60.54,91.17a3.12,3.12,0,0,1-1.89,5.6Z"/><path class="cls-1" d="M115.43,127.78,100.94,88.23,84.19,92.6a3.12,3.12,0,1,1-1.58-6l22.25-5.8,14.33,39.12,6.93-2.39a3.12,3.12,0,0,1,2,5.9Z"/><polygon class="cls-1" points="58.99 58.39 48.14 71.1 62.55 70.42 61.02 55.51 58.99 58.39"/></svg>