<svg xmlns="http://www.w3.org/2000/svg" width="25.855" height="25.501" viewBox="0 0 25.855 25.501">
  <g id="Group_165" data-name="Group 165" transform="translate(-219.431 -196.55)">
    <path id="Path_196" data-name="Path 196" d="M231,200.161l10.788,10.829a1.241,1.241,0,0,1,0,1.753l-1.7,1.7a1.241,1.241,0,0,1-1.754,0l-.3-.3-3.97,3.969s-4.773,3.544-9.215-.614a7.519,7.519,0,0,1-.094-10.964c1.7-1.323,3.308-2.835,3.308-2.835l-.366-.436a1.241,1.241,0,0,1,.09-1.691l1.476-1.422A1.242,1.242,0,0,1,231,200.161Z" fill="#1ea6b1"/>
    <rect id="Rectangle_237" data-name="Rectangle 237" width="7.159" height="1.914" rx="0.467" transform="translate(233.2 201.612) rotate(-45)" fill="#1ea6b1"/>
    <rect id="Rectangle_238" data-name="Rectangle 238" width="7.159" height="1.914" rx="0.467" transform="translate(238.871 207.177) rotate(-45)" fill="#1ea6b1"/>
    <path id="Path_197" data-name="Path 197" d="M223.472,215.742l-4.04,3.686,2.623,2.623,3.792-3.792Z" fill="#1ea6b1"/>
    <path id="Path_198" data-name="Path 198" d="M229.521,204.571h2.217l-2.077,5.557,3.34-1.908-1.544,6.96,1.123-.337-2.021,2.806-.926-3.34,1.038.73.309-4.153-3.255,1.88Z" fill="#fff"/>
  </g>
</svg>
